# xmcd
#
# Track frame offsets: 
#        150
#        46300
#        63423
#        91225
#        121955
#        153375
#        184120
#        209123
#        225663
#        245410
#        255455
#        268353
#        297360
#        311623
#
# Disc length: 4351 seconds
#
# Revision: 0
# Processed by: cddbd v1.5.2PL0 Copyright (c) Steve Scherf et al.
# Submitted via: ExactAudioCopy v1.0b3
#
DISCID=ce10fd0e
DTITLE=Kalle Sändare - Tager ett nummer and Lejonklösa
DYEAR=1990
DGENRE=
TTITLE0=Kartonger till salu
TTITLE1=Beg. Elgitarr, märke Kent sälj.
TTITLE2=Dvärgpapegoja med bur
TTITLE3=2 st. bikupor
TTITLE4=Batterist sökes till dans- och poporkester
TTITLE5=Trädfällning m.m utföres
TTITLE6=Telefonsamtal med Alice Timander
TTITLE7=Telefonsamtal med Ulf Thorén
TTITLE8=Telefonsamtal med Alice Timander
TTITLE9=Telefonsamtal med Ulf Thorén
TTITLE10=Telefonsamtal med Pekka Langer
TTITLE11=Telefonsamtal med Bernt Nilsson
TTITLE12=Telefonsamtal med Bertil Schutt
TTITLE13=Telefonsamtal med Magnus Banck
EXTD=
EXTT0=
EXTT1=
EXTT2=
EXTT3=
EXTT4=
EXTT5=
EXTT6=
EXTT7=
EXTT8=
EXTT9=
EXTT10=
EXTT11=
EXTT12=
EXTT13=
PLAYORDER=
